<?xml version="1.0" encoding="UTF-8" standalone="no"?>
<!-- Created with Inkscape (http://www.inkscape.org/) -->

<svg
   xmlns:dc="http://purl.org/dc/elements/1.1/"
   xmlns:cc="http://creativecommons.org/ns#"
   xmlns:rdf="http://www.w3.org/1999/02/22-rdf-syntax-ns#"
   xmlns:svg="http://www.w3.org/2000/svg"
   xmlns="http://www.w3.org/2000/svg"
   xmlns:sodipodi="http://sodipodi.sourceforge.net/DTD/sodipodi-0.dtd"
   xmlns:inkscape="http://www.inkscape.org/namespaces/inkscape"
   width="15.455953mm"
   height="15.455953mm"
   viewBox="0 0 54.765187 54.765186"
   id="svg4225"
   version="1.1"
   inkscape:version="0.91 r13725"
   sodipodi:docname="text.svg">
  <defs
     id="defs4227" />
  <sodipodi:namedview
     id="base"
     pagecolor="#ffffff"
     bordercolor="#666666"
     borderopacity="1.0"
     inkscape:pageopacity="0.0"
     inkscape:pageshadow="2"
     inkscape:zoom="11.2"
     inkscape:cx="24.202941"
     inkscape:cy="16.829861"
     inkscape:document-units="px"
     inkscape:current-layer="layer1"
     showgrid="false"
     fit-margin-top="1"
     fit-margin-left="1"
     fit-margin-right="1"
     fit-margin-bottom="1"
     inkscape:window-width="1855"
     inkscape:window-height="1056"
     inkscape:window-x="65"
     inkscape:window-y="24"
     inkscape:window-maximized="1" />
  <metadata
     id="metadata4230">
    <rdf:RDF>
      <cc:Work
         rdf:about="">
        <dc:format>image/svg+xml</dc:format>
        <dc:type
           rdf:resource="http://purl.org/dc/dcmitype/StillImage" />
        <dc:title></dc:title>
      </cc:Work>
    </rdf:RDF>
  </metadata>
  <g
     inkscape:label="Layer 1"
     inkscape:groupmode="layer"
     id="layer1"
     transform="translate(-344.66467,-498.79852)">
    <rect
       style="color:#000000;clip-rule:nonzero;display:inline;overflow:visible;visibility:visible;opacity:0.5;isolation:auto;mix-blend-mode:normal;color-interpolation:sRGB;color-interpolation-filters:linearRGB;solid-color:#000000;solid-opacity:1;fill:#ffcc00;fill-opacity:1;fill-rule:nonzero;stroke:none;stroke-width:20;stroke-linecap:round;stroke-linejoin:miter;stroke-miterlimit:4;stroke-dasharray:none;stroke-dashoffset:0;stroke-opacity:1;color-rendering:auto;image-rendering:auto;shape-rendering:auto;text-rendering:auto;enable-background:accumulate"
       id="rect4819"
       width="47.678574"
       height="47.678574"
       x="348.20798"
       y="502.34183"
       rx="2.12749"
       ry="2.12749" />
    <text
       sodipodi:linespacing="100%"
       id="text4195"
       y="521.18793"
       x="371.89352"
       style="font-style:normal;font-variant:normal;font-weight:bold;font-stretch:normal;font-size:7.5px;line-height:100%;font-family:'Istok Web';-inkscape-font-specification:'Istok Web Bold';text-align:center;letter-spacing:0px;word-spacing:0px;text-anchor:middle;fill:#000000;fill-opacity:1;stroke:none;stroke-width:1px;stroke-linecap:butt;stroke-linejoin:miter;stroke-opacity:1"
       xml:space="preserve"><tspan
         y="521.18793"
         x="371.89352"
         id="tspan4197"
         sodipodi:role="line">Sample text</tspan></text>
    <g
       style="font-style:normal;font-variant:normal;font-weight:bold;font-stretch:normal;font-size:7.5px;line-height:100%;font-family:'Istok Web';-inkscape-font-specification:'Istok Web Bold';text-align:center;letter-spacing:0px;word-spacing:0px;text-anchor:middle;fill:#000000;fill-opacity:1;stroke:none;stroke-width:1px;stroke-linecap:butt;stroke-linejoin:miter;stroke-opacity:1"
       id="text4821">
      <path
         d="m 350.34933,534.79608 q -0.22705,-0.17212 -0.10986,-0.3479 l 0.28198,-0.4248 q 0.13916,-0.20874 0.4065,-0.022 0.20508,0.14283 0.53467,0.29663 0.33325,0.15015 0.69946,0.15015 0.25635,0 0.49438,-0.0586 0.23804,-0.0586 0.36255,-0.22705 0.12451,-0.16846 0.12451,-0.39917 0,-0.1648 -0.0549,-0.28931 -0.0549,-0.12451 -0.17944,-0.20508 -0.12451,-0.0806 -0.25635,-0.1355 -0.23071,-0.0952 -0.58227,-0.18676 -0.3479,-0.0952 -0.68848,-0.22705 -0.30396,-0.11719 -0.55664,-0.32227 -0.25269,-0.20508 -0.39185,-0.46143 -0.13916,-0.25634 -0.13916,-0.68481 0,-0.50903 0.32959,-0.87158 0.32959,-0.36255 0.75806,-0.46509 0.42847,-0.10254 0.86426,-0.10254 0.43213,0 0.88989,0.13184 0.46143,0.13183 0.6958,0.32959 0.23071,0.19409 0.11353,0.35156 l -0.29663,0.39917 q -0.15015,0.20508 -0.40284,0.033 -0.16113,-0.10987 -0.44311,-0.24536 -0.27832,-0.1355 -0.58228,-0.1355 -0.21606,0 -0.39917,0.0366 -0.17944,0.0366 -0.3186,0.17578 -0.13916,0.13916 -0.13916,0.34424 0,0.19775 0.10254,0.32226 0.10254,0.12085 0.22705,0.18311 0.12451,0.0586 0.25268,0.0989 0.39551,0.12817 0.70679,0.22705 0.31128,0.0952 0.57495,0.2124 0.36621,0.1648 0.56031,0.32959 0.19409,0.1648 0.3186,0.45044 0.12817,0.28564 0.12817,0.68115 0,0.58594 -0.37353,0.97046 -0.37354,0.38086 -0.8313,0.49072 -0.4541,0.11353 -0.88623,0.11353 -0.63721,0 -1.03638,-0.12451 -0.39917,-0.12085 -0.75806,-0.39185 z"
         id="path4836"
         inkscape:connector-curvature="0" />
      <path
         d="m 354.78415,534.16254 q 0,-0.73243 0.69946,-1.06202 0.69946,-0.32958 1.59668,-0.35156 l 0,-0.14648 q 0,-0.33692 -0.16846,-0.47608 -0.16845,-0.13916 -0.46875,-0.13916 -0.2124,0 -0.37719,0.0623 -0.16114,0.0586 -0.28198,0.13916 -0.11719,0.0769 -0.21241,0.15747 -0.16845,0.14648 -0.27832,0.0146 l -0.30395,-0.37354 q -0.11353,-0.13916 0.0549,-0.28564 0.12817,-0.11353 0.29663,-0.19775 0.17212,-0.0842 0.4541,-0.15748 0.28198,-0.0769 0.73242,-0.0769 0.76172,0 1.16822,0.35156 0.41015,0.35157 0.41015,1.03638 l 0,2.31079 q 0,0.21973 -0.21972,0.21973 l -0.60059,0 q -0.19775,0 -0.19775,-0.21973 l 0,-0.10986 -0.007,0 q -0.21606,0.20874 -0.52002,0.30761 -0.30029,0.0952 -0.55298,0.0952 -0.60058,0 -0.91186,-0.29297 -0.31128,-0.29663 -0.31128,-0.80566 z m 1.08398,-0.022 q 0,0.12818 0.0513,0.22339 0.0513,0.0916 0.16114,0.1355 0.10986,0.0439 0.24536,0.0439 0.18676,0 0.36255,-0.0513 0.17578,-0.0513 0.39184,-0.2417 l 0,-0.79468 q -0.61523,0.0696 -0.82397,0.17944 -0.20874,0.10987 -0.3003,0.22705 -0.0879,0.11719 -0.0879,0.27832 z"
         id="path4838"
         inkscape:connector-curvature="0" />
      <path
         d="m 359.32516,535.18793 q -0.21972,0 -0.21972,-0.21973 l 0,-3.40576 q 0,-0.21973 0.21972,-0.21973 l 0.57862,0 q 0.21972,0 0.21972,0.21973 l 0,0.2124 0.0147,0 q 0.1062,-0.23437 0.35889,-0.36987 0.25269,-0.1355 0.47241,-0.1355 0.43946,0 0.68115,0.20508 0.24537,0.20508 0.33692,0.45776 l 0.0146,0 q 0.3186,-0.41382 0.57495,-0.53833 0.26001,-0.12451 0.66284,-0.12451 0.54199,0 0.91186,0.35889 0.37354,0.35888 0.37354,1.31103 l 0,2.02881 q 0,0.21973 -0.21973,0.21973 l -0.58593,0 q -0.21973,0 -0.21973,-0.21973 l 0,-1.76514 q 0,-0.79834 -0.10986,-1.00708 -0.1062,-0.20874 -0.38086,-0.20874 -0.25635,0 -0.46875,0.3003 -0.21241,0.30029 -0.21241,1.23779 l 0,1.44287 q 0,0.21973 -0.21972,0.21973 l -0.58594,0 q -0.21973,0 -0.21973,-0.21973 l 0,-1.76514 q 0,-0.79834 -0.10986,-1.00708 -0.1062,-0.20874 -0.38086,-0.20874 -0.25635,0 -0.46875,0.3003 -0.2124,0.29663 -0.2124,1.23779 l 0,1.44287 q 0,0.21973 -0.21973,0.21973 l -0.58594,0 z"
         id="path4840"
         inkscape:connector-curvature="0" />
      <path
         d="m 365.74118,536.65277 q -0.21973,0 -0.21973,-0.21973 l 0,-4.8706 q 0,-0.21973 0.21973,-0.21973 l 0.57861,0 q 0.18311,0 0.19776,0.21973 l 0.0146,0.2124 0.0146,0 q 0.19043,-0.31494 0.42481,-0.41015 0.23437,-0.0952 0.56396,-0.0952 0.8606,0 1.2085,0.59692 0.35156,0.59327 0.35156,1.39893 0,0.80566 -0.35156,1.40259 -0.3479,0.59326 -1.2085,0.59326 -0.32959,0 -0.56396,-0.0952 -0.23438,-0.0952 -0.42481,-0.41015 l -0.0146,0 q 0.0146,0.14648 0.0146,0.29297 l 0,1.38427 q 0,0.21973 -0.21972,0.21973 l -0.58594,0 z m 0.80566,-3.22266 q 0,0.49439 0.1941,0.80567 0.19775,0.30762 0.47241,0.30762 0.49438,0 0.64453,-0.34424 0.15381,-0.3479 0.15381,-0.93384 0,-0.58594 -0.15381,-0.93018 -0.15015,-0.3479 -0.64453,-0.3479 -0.27466,0 -0.47241,0.31128 -0.1941,0.30762 -0.1941,0.802 l 0,0.32959 z"
         id="path4842"
         inkscape:connector-curvature="0" />
      <path
         d="m 370.10641,535.18793 q -0.21972,0 -0.21972,-0.21973 l 0,-4.32495 q 0,-0.1648 0.0769,-0.30029 l 0.28198,-0.49439 q 0.0806,-0.13916 0.19043,-0.13916 l 0.25635,0 q 0.21973,0 0.21973,0.21973 l 0,5.03906 q 0,0.21973 -0.21973,0.21973 l -0.58594,0 z"
         id="path4844"
         inkscape:connector-curvature="0" />
      <path
         d="m 371.70309,533.26532 q 0,-0.92651 0.46143,-1.46118 0.46509,-0.53467 1.31104,-0.53467 0.98144,0 1.45751,0.50537 0.47608,0.50537 0.47608,1.62598 0,0.21972 -0.20508,0.21972 l -2.41699,0 q 0.0586,0.60791 0.30029,0.76539 0.2417,0.15747 0.5603,0.15747 0.30396,0 0.46509,-0.0806 0.16114,-0.0806 0.271,-0.21973 0.12451,-0.16113 0.30762,-0.0513 l 0.36621,0.22339 q 0.21606,0.13184 0.0623,0.31494 -0.22339,0.26734 -0.52368,0.39917 -0.30029,0.13184 -0.94849,0.13184 -1.05102,0 -1.4978,-0.53467 -0.44678,-0.53467 -0.44678,-1.46118 z m 1.08765,-0.3772 1.59302,0 q 0,-0.39551 -0.19776,-0.64453 -0.19775,-0.25268 -0.62988,-0.25268 -0.34424,0 -0.54565,0.24169 -0.20142,0.23804 -0.21973,0.65552 z"
         id="path4846"
         inkscape:connector-curvature="0" />
      <path
         d="m 378.99802,536.65277 q -0.21973,0 -0.21973,-0.21973 l 0,-4.8706 q 0,-0.21973 0.21973,-0.21973 l 0.57861,0 q 0.18311,0 0.19775,0.21973 l 0.0147,0.2124 0.0146,0 q 0.19043,-0.31494 0.42481,-0.41015 0.23437,-0.0952 0.56396,-0.0952 0.8606,0 1.2085,0.59692 0.35156,0.59327 0.35156,1.39893 0,0.80566 -0.35156,1.40259 -0.3479,0.59326 -1.2085,0.59326 -0.32959,0 -0.56396,-0.0952 -0.23438,-0.0952 -0.42481,-0.41015 l -0.0146,0 q 0.0146,0.14648 0.0146,0.29297 l 0,1.38427 q 0,0.21973 -0.21973,0.21973 l -0.58593,0 z m 0.80566,-3.22266 q 0,0.49439 0.19409,0.80567 0.19776,0.30762 0.47241,0.30762 0.49439,0 0.64454,-0.34424 0.1538,-0.3479 0.1538,-0.93384 0,-0.58594 -0.1538,-0.93018 -0.15015,-0.3479 -0.64454,-0.3479 -0.27465,0 -0.47241,0.31128 -0.19409,0.30762 -0.19409,0.802 l 0,0.32959 z"
         id="path4848"
         inkscape:connector-curvature="0" />
      <path
         d="m 382.93845,534.16254 q 0,-0.73243 0.69946,-1.06202 0.69946,-0.32958 1.59668,-0.35156 l 0,-0.14648 q 0,-0.33692 -0.16846,-0.47608 -0.16846,-0.13916 -0.46875,-0.13916 -0.2124,0 -0.3772,0.0623 -0.16113,0.0586 -0.28198,0.13916 -0.11719,0.0769 -0.2124,0.15747 -0.16846,0.14648 -0.27832,0.0146 l -0.30396,-0.37354 q -0.11352,-0.13916 0.0549,-0.28564 0.12817,-0.11353 0.29663,-0.19775 0.17212,-0.0842 0.4541,-0.15748 0.28198,-0.0769 0.73242,-0.0769 0.76172,0 1.16821,0.35156 0.41016,0.35157 0.41016,1.03638 l 0,2.31079 q 0,0.21973 -0.21973,0.21973 l -0.60058,0 q -0.19776,0 -0.19776,-0.21973 l 0,-0.10986 -0.007,0 q -0.21607,0.20874 -0.52002,0.30761 -0.30029,0.0952 -0.55298,0.0952 -0.60059,0 -0.91186,-0.29297 -0.31128,-0.29663 -0.31128,-0.80566 z m 1.08398,-0.022 q 0,0.12818 0.0513,0.22339 0.0513,0.0916 0.16113,0.1355 0.10987,0.0439 0.24536,0.0439 0.18677,0 0.36255,-0.0513 0.17578,-0.0513 0.39185,-0.2417 l 0,-0.79468 q -0.61524,0.0696 -0.82398,0.17944 -0.20874,0.10987 -0.30029,0.22705 -0.0879,0.11719 -0.0879,0.27832 z"
         id="path4850"
         inkscape:connector-curvature="0" />
      <path
         d="m 387.13156,532.07513 q -0.21606,0 -0.21606,-0.1831 l 0,-0.36621 q 0,-0.18311 0.21606,-0.18311 l 0.24902,0 0,-0.12817 q 0,-0.1648 0.0769,-0.30029 l 0.28198,-0.49439 q 0.0806,-0.13916 0.19043,-0.13916 l 0.25635,0 q 0.21973,0 0.21973,0.21973 l 0,0.84228 0.59326,0 q 0.21606,0 0.21606,0.18311 l 0,0.36621 q 0,0.1831 -0.21606,0.1831 l -0.59326,0 0,1.81641 q 0,0.37354 0.0513,0.53833 0.0549,0.16113 0.27833,0.16113 0.11352,0 0.25634,-0.0366 0.14283,-0.0403 0.22339,-0.0769 0.12818,-0.0586 0.16846,0.0842 l 0.10986,0.41748 q 0.033,0.12451 -0.0952,0.1831 -0.12085,0.0549 -0.33325,0.0989 -0.20875,0.0476 -0.42115,0.0476 -0.52368,0 -0.89355,-0.21607 -0.36988,-0.21606 -0.36988,-0.88989 l 0,-2.12769 -0.24902,0 z"
         id="path4852"
         inkscape:connector-curvature="0" />
      <path
         d="m 390.40915,535.18793 q -0.21973,0 -0.21973,-0.21973 l 0,-4.96582 q 0,-0.21973 0.21973,-0.21973 l 0.58594,0 q 0.21972,0 0.21972,0.21973 l 0,1.47949 q 0,0.14649 -0.0147,0.29297 l 0.022,0 q 0.16845,-0.28931 0.42846,-0.39551 0.26001,-0.10986 0.62622,-0.10986 0.57129,0 0.94483,0.35889 0.37353,0.35888 0.37353,1.31103 l 0,2.02881 q 0,0.21973 -0.21972,0.21973 l -0.58594,0 q -0.21973,0 -0.21973,-0.21973 l 0,-1.76514 q 0,-0.79834 -0.10986,-1.00708 -0.10986,-0.20874 -0.47241,-0.20874 -0.38452,0 -0.57861,0.3003 -0.1941,0.29663 -0.1941,1.23779 l 0,1.44287 q 0,0.21973 -0.21972,0.21973 l -0.58594,0 z"
         id="path4854"
         inkscape:connector-curvature="0" />
    </g>
  </g>
</svg>
